<svg
  xmlns="http://www.w3.org/2000/svg"
  width="100"
  height="100"
  viewBox="0 0 100 100"
>
	<!-- Rounded background rectangle -->
  <rect
    x="0"
    y="0"
    width="100"
    height="100"
    rx="20"
    ry="20"
    fill="#18181B"
  />
	<!-- Letter "M" in accent green -->
	<g transform="translate(13, 77) scale(1.35)">
		<path
			d="M6.53 0L-0.83 0L10.75-42.24L24.13-42.24L27.07-18.11L38.98-42.24L50.18-42.24L51.33-10.62L51.33-10.62Q51.58-4.35 54.66-2.43L54.66-2.43L54.66-2.43Q53.95-1.15 51.90 0.06L51.90 0.06L51.90 0.06Q49.86 1.28 47.14 1.28L47.14 1.28L47.14 1.28Q44.42 1.28 42.82 0.51L42.82 0.51L42.82 0.51Q41.22-0.26 40.32-1.54L40.32-1.54L40.32-1.54Q38.72-3.84 38.72-8.26L38.72-8.26L38.72-28.03L26.11 0L18.18 0L13.70-28.74L6.53 0Z"
			fill="#22C55D"
		/>
	</g>
</svg>
